<svg xmlns="http://www.w3.org/2000/svg" enable-background="new 0 0 32 32" viewBox="0 0 32 32" id="fire"><path d="M13.84998,0.71997C13.28998,0.38,12.58002,0.44,12.09003,0.87c-0.5,0.41998-0.66003,1.12-0.40002,1.71997c1.75,4.11005,1.28998,6.07001,0.85999,6.87c-0.45996,0.84003-1.20001,1.06-1.5,1.11005C10.23999,10.71997,9.63,9.12,9.62,9.10999c-0.19-0.56-0.70001-0.95001-1.28998-1c-0.60004-0.03998-1.15002,0.25-1.44,0.77002c-2.65002,4.82996-3.35004,9.35999-2.07001,13.47998c1.87,6.03998,7.33997,8.85999,7.57001,8.97998C12.59998,31.45001,12.84003,31.5,13.06,31.5c0.37,0,0.72003-0.13,1-0.38c0.46002-0.41003,0.63-1.06,0.41998-1.64001c-0.45996-1.25-1.26996-4.87,0.41003-6.64001c1.02997-1.07996,1.75-2.07001,2.23999-2.91998c4.02002,6.32001,1.87,8.29999,1.83002,8.34998c-0.01001,0-0.01001,0.01001-0.02002,0.01001c-0.67999,0.47003-0.84003,1.40002-0.38,2.08002c0.47003,0.67999,1.39001,0.85999,2.08002,0.40002c0-0.01001,0.01001-0.01001,0.01996-0.02002c4.87006-3.41003,7.27002-7.35999,7.13-11.76001C27.48999,9.16998,14.40997,1.06,13.84998,0.71997z"></path></svg>