<svg width="145" height="138" viewBox="0 0 145 138" fill="none" xmlns="http://www.w3.org/2000/svg">
<g clip-path="url(#clip0_1_138)">
<path d="M104.641 28.8965C103.149 27.7995 101.582 26.8022 100.015 25.8797C99.8414 25.78 99.6922 25.6553 99.543 25.5556C98.971 25.2315 98.3742 24.9323 97.8023 24.6081C97.3298 24.3339 96.8325 24.0846 96.36 23.8352C95.4399 23.3615 94.4949 22.9377 93.55 22.5138C93.177 22.3393 92.804 22.1648 92.431 21.9903C91.113 21.4168 89.7702 20.9182 88.4274 20.4445C88.1787 20.3697 87.93 20.2949 87.6814 20.2201C86.6867 19.896 85.692 19.5718 84.6973 19.2976C84.573 19.2726 84.4486 19.2477 84.2994 19.1978C84.0259 19.1231 83.7524 19.0732 83.4788 18.9984C82.4344 18.7241 81.39 18.4997 80.3456 18.3003C80.0223 18.2255 79.6742 18.1756 79.3509 18.1008C78.0827 17.8764 76.8144 17.677 75.5462 17.5274C75.397 17.5025 75.223 17.5025 75.0738 17.4775C73.9547 17.3529 72.8357 17.2781 71.7167 17.2282C71.3686 17.2033 71.0204 17.2033 70.6971 17.1783C69.5284 17.1534 68.3845 17.1534 67.2655 17.1783C67.166 17.1783 67.0665 17.1783 66.9671 17.1783C65.7486 17.2282 64.5301 17.3529 63.3365 17.4775C63.0132 17.5274 62.7148 17.5523 62.3915 17.6022C61.4217 17.7268 60.4519 17.9014 59.4821 18.1008C59.2583 18.1507 59.0096 18.1756 58.7858 18.2504C57.6419 18.4997 56.5478 18.7989 55.4536 19.148C55.2049 19.2228 54.9314 19.3225 54.6827 19.3973C53.8124 19.6965 52.942 20.0206 52.0966 20.3697C51.8479 20.4694 51.5744 20.5941 51.3257 20.6938C50.3061 21.1426 49.3115 21.6412 48.3665 22.1897C48.2173 22.2894 48.0432 22.3892 47.894 22.4889C47.0983 22.9626 46.3025 23.4862 45.5565 24.0098C45.3078 24.1843 45.084 24.3588 44.8354 24.5334C43.965 25.2065 43.1195 25.8797 42.3238 26.6526C41.5281 27.4255 40.8069 28.2233 40.1106 29.0461C40.036 29.1209 39.9614 29.1957 39.8868 29.2705C39.7625 29.4201 39.663 29.5946 39.5387 29.7691C39.0165 30.4423 38.5191 31.1404 38.0964 31.8385C37.9223 32.1128 37.7483 32.3621 37.5991 32.6363C37.052 33.5838 36.5546 34.5312 36.1568 35.5285L23.1513 66.8683C23.5491 65.871 24.0465 64.9236 24.5936 63.9762C24.7428 63.7019 24.9168 63.4277 25.0909 63.1783C25.5385 62.4553 26.011 61.7821 26.5332 61.084C26.7073 60.8347 26.8813 60.6103 27.0803 60.361C27.7517 59.5382 28.4728 58.7404 29.2934 57.9675C30.0892 57.2195 30.9347 56.5214 31.805 55.8732C32.0288 55.6987 32.2775 55.5241 32.5262 55.3496C33.2722 54.8011 34.0679 54.3025 34.8637 53.8287C35.0129 53.729 35.1621 53.6293 35.3361 53.5545C36.2811 53.006 37.2758 52.5073 38.2953 52.0586C38.544 51.9339 38.8175 51.8342 39.0911 51.7344C39.9366 51.3854 40.782 51.0613 41.6773 50.7621C41.9259 50.6873 42.1746 50.5876 42.4481 50.5128C43.5423 50.1637 44.6613 49.8645 45.7803 49.6152C46.0041 49.5653 46.2528 49.5155 46.4766 49.4905C47.4216 49.2911 48.3914 49.1166 49.3861 48.9919C49.7093 48.942 50.0077 48.8922 50.331 48.8672C51.5246 48.7176 52.7182 48.6179 53.9616 48.568C54.0611 48.568 54.1605 48.568 54.26 48.568C55.4039 48.5182 56.5478 48.5182 57.6917 48.568C58.0398 48.568 58.3879 48.593 58.7112 48.593C59.8302 48.6428 60.9492 48.7176 62.0683 48.8423C62.2175 48.8672 62.3915 48.8672 62.5407 48.8922C63.809 49.0418 65.0772 49.2412 66.3454 49.4656C66.6687 49.5155 67.0168 49.5903 67.3401 49.6651C68.3845 49.8645 69.4289 50.1138 70.4733 50.3632C70.7469 50.438 71.0204 50.4878 71.294 50.5626C72.413 50.8618 73.5569 51.2109 74.6759 51.5848C74.9246 51.6596 75.1732 51.7344 75.4219 51.8092C76.7647 52.2829 78.1075 52.7816 79.4255 53.355C79.7985 53.5046 80.1715 53.7041 80.5445 53.8786C81.4895 54.3025 82.4344 54.7263 83.3545 55.2C83.8518 55.4493 84.3243 55.7236 84.7968 55.9729C85.5428 56.3718 86.2888 56.7957 87.01 57.2195C88.5766 58.167 90.1432 59.1393 91.6352 60.2363C97.7525 64.6743 102.477 69.8851 105.71 75.3203C107.849 78.9605 109.341 82.7003 110.136 86.4401C110.534 88.31 110.758 90.155 110.783 92C110.857 95.6651 110.236 99.2304 108.868 102.546L121.849 71.1816C127.344 57.8927 120.954 40.7393 104.641 28.8965Z" fill="url(#paint0_linear_1_138)"/>
<path d="M24.8412 14.0119C45.7296 -5.90894 86.8846 -4.41301 116.775 17.303C146.665 39.0439 153.976 72.8022 133.088 92.6981C112.199 112.594 71.0443 111.123 41.1541 89.3821C11.2638 67.6661 3.97775 33.9328 24.8412 14.0119ZM115.706 80.0574C129.88 66.5442 124.906 43.6314 104.64 28.8965C84.3482 14.1615 56.4224 13.1642 42.2482 26.6775C28.074 40.1908 33.0225 63.0786 53.3141 77.8135C73.5807 92.5485 101.531 93.5707 115.706 80.0574Z" fill="url(#paint1_linear_1_138)"/>
<g opacity="0.8">
<path opacity="0.8" d="M104.989 28.1735C94.6939 20.7187 81.7381 16.4304 69.4786 16.4304C58.3382 16.4304 48.5903 19.896 42.0005 26.154C36.0821 31.7887 33.1229 39.4179 33.67 47.6206C34.416 58.9149 41.4534 70.1843 52.9669 78.5366C63.2619 86.0163 76.2176 90.3046 88.5268 90.3046C99.6424 90.3046 109.39 86.864 115.98 80.5811C121.898 74.9464 124.858 67.3171 124.311 59.1144C123.54 47.8201 116.502 36.5258 104.989 28.1735ZM115.707 80.0575C101.532 93.5708 73.6066 92.5485 53.315 77.8136C33.0235 63.0786 28.0749 40.1659 42.2492 26.6775C56.4234 13.1643 84.3492 14.1616 104.641 28.8965C124.907 43.6315 129.881 66.5442 115.707 80.0575Z" fill="url(#paint2_linear_1_138)"/>
<path opacity="0.8" d="M116.776 17.3021C86.9105 -4.41392 45.7306 -5.88492 24.8422 14.011C3.95386 33.907 11.2648 67.6652 41.155 89.3812C71.0453 111.122 112.225 112.593 133.089 92.6972C153.977 72.8013 146.691 39.043 116.776 17.3021ZM132.741 92.049C123.44 100.9 109.54 105.787 93.5997 105.787C75.6457 105.787 56.697 99.5037 41.6026 88.5335C24.9666 76.4414 14.8208 60.3102 13.7764 44.2289C13.0055 32.7601 16.9842 22.5628 25.2152 14.6842C34.5155 5.8083 48.4162 0.921584 64.3809 0.921584C82.3349 0.921584 101.259 7.20451 116.353 18.1747C132.989 30.2668 143.135 46.4229 144.204 62.4793C144.95 73.9481 140.996 84.1704 132.741 92.049Z" fill="url(#paint3_linear_1_138)"/>
</g>
<path d="M127.295 114.838C127.444 114.564 127.593 114.314 127.717 114.04C128.264 113.018 128.762 111.971 129.209 110.924L142.165 79.6087C141.718 80.6558 141.22 81.703 140.673 82.7252C140.524 82.9995 140.375 83.2488 140.25 83.523C139.728 84.4455 139.181 85.3431 138.584 86.2407C138.51 86.3404 138.46 86.465 138.385 86.5648C137.714 87.5371 136.968 88.4846 136.197 89.407C136.023 89.6065 135.849 89.806 135.675 90.0304C134.879 90.9528 134.034 91.8504 133.114 92.723C131.945 93.8201 130.701 94.8423 129.408 95.8396C129.06 96.1138 128.712 96.3631 128.364 96.6125C127.245 97.4103 126.101 98.1583 124.907 98.8813C124.684 99.006 124.46 99.1805 124.211 99.3052C122.794 100.103 121.327 100.826 119.835 101.499C119.461 101.674 119.064 101.823 118.691 101.973C117.447 102.496 116.179 102.97 114.886 103.394C114.513 103.519 114.14 103.643 113.767 103.768C112.151 104.267 110.509 104.715 108.843 105.089C108.495 105.164 108.147 105.214 107.824 105.289C106.406 105.588 104.989 105.812 103.547 106.012C103.074 106.087 102.626 106.137 102.154 106.186C100.388 106.386 98.6229 106.56 96.8076 106.635C96.6584 106.635 96.4843 106.635 96.3351 106.635C94.669 106.71 92.9781 106.685 91.2871 106.66C90.7897 106.635 90.2924 106.635 89.7702 106.61C88.129 106.535 86.4629 106.411 84.7719 106.236C84.5481 106.211 84.3243 106.211 84.1005 106.186C82.2355 105.962 80.3704 105.688 78.4805 105.339C77.9832 105.239 77.5107 105.139 77.0134 105.04C75.4716 104.74 73.9299 104.391 72.3881 103.992C71.9902 103.893 71.5923 103.793 71.1945 103.693C69.5035 103.244 67.8374 102.721 66.1465 102.172C65.7983 102.073 65.475 101.973 65.1269 101.848C63.1375 101.175 61.173 100.402 59.2085 99.5794C58.6366 99.3301 58.0647 99.0558 57.5176 98.8065C56.1499 98.1832 54.7822 97.5599 53.4145 96.8867C52.6934 96.5127 51.9722 96.1138 51.2759 95.7149C50.0077 95.0417 48.7644 94.3436 47.521 93.5957C47.0983 93.3463 46.6755 93.0721 46.2777 92.8228C44.5618 91.7507 42.846 90.6038 41.1799 89.407C24.6433 77.3897 15.0197 61.7073 13.2542 46.6981C13.105 45.3268 13.0055 43.9805 12.9558 42.6341C12.8314 37.2488 13.7515 31.9881 15.7906 27.1013L2.83485 58.4163C-5.24696 77.9881 4.17767 103.244 28.1993 120.697C29.8654 121.919 31.5812 123.041 33.297 124.113C33.7198 124.362 34.1176 124.636 34.5404 124.886C34.9383 125.135 35.3361 125.384 35.734 125.634C36.5795 126.132 37.425 126.556 38.2953 127.005C39.0165 127.404 39.7127 127.803 40.4339 128.152C41.8016 128.85 43.1693 129.473 44.537 130.096C45.1089 130.346 45.656 130.645 46.2279 130.869C48.1924 131.692 50.1569 132.465 52.1463 133.138C52.4944 133.263 52.8177 133.338 53.1658 133.462C54.6579 133.961 56.1499 134.435 57.6419 134.859C57.816 134.908 58.0149 134.958 58.189 135.008C58.5869 135.108 58.9847 135.208 59.3826 135.307C60.9244 135.706 62.4661 136.055 64.0079 136.354C64.5052 136.454 64.9777 136.554 65.475 136.654C67.3401 137.003 69.23 137.277 71.095 137.501C71.3188 137.526 71.5426 137.526 71.7664 137.551C73.4325 137.726 75.0986 137.85 76.7647 137.925C77.262 137.95 77.7843 137.975 78.2816 137.975C79.9726 138.025 81.6635 138.025 83.3296 137.95C83.4788 137.95 83.6529 137.95 83.8021 137.95C85.6174 137.875 87.3829 137.701 89.1485 137.501C89.621 137.451 90.0686 137.377 90.5411 137.327C91.9834 137.127 93.4257 136.878 94.8182 136.604C95.1664 136.529 95.5145 136.479 95.8378 136.404C97.5039 136.03 99.1451 135.582 100.761 135.083C101.134 134.958 101.507 134.834 101.88 134.709C103.174 134.285 104.442 133.786 105.685 133.288C106.083 133.138 106.456 132.964 106.829 132.814C108.321 132.141 109.788 131.418 111.206 130.62C111.429 130.495 111.653 130.346 111.902 130.196C113.096 129.498 114.239 128.75 115.358 127.927C115.707 127.678 116.055 127.429 116.403 127.154C117.696 126.182 118.939 125.16 120.108 124.038C121.028 123.165 121.849 122.268 122.669 121.345C122.843 121.146 123.017 120.946 123.192 120.722C123.341 120.547 123.515 120.348 123.664 120.173C124.261 119.425 124.833 118.653 125.38 117.88C125.454 117.78 125.504 117.68 125.579 117.58C126.225 116.658 126.797 115.76 127.295 114.838Z" fill="url(#paint4_linear_1_138)"/>
</g>
<defs>
<linearGradient id="paint0_linear_1_138" x1="23.1448" y1="59.8304" x2="123.78" y2="59.8304" gradientUnits="userSpaceOnUse">
<stop stop-color="#A57EF3"/>
<stop offset="0.1106" stop-color="#8B6AD5"/>
<stop offset="0.2369" stop-color="#7559BA"/>
<stop offset="0.3752" stop-color="#634CA5"/>
<stop offset="0.5296" stop-color="#574296"/>
<stop offset="0.7129" stop-color="#4F3D8E"/>
<stop offset="1" stop-color="#4D3B8B"/>
</linearGradient>
<linearGradient id="paint1_linear_1_138" x1="126.215" y1="17.7064" x2="40.0337" y2="82.4152" gradientUnits="userSpaceOnUse">
<stop offset="0.1378" stop-color="#C7A2FF"/>
<stop offset="1" stop-color="#9B6FF1"/>
</linearGradient>
<linearGradient id="paint2_linear_1_138" x1="148.295" y1="-8.79107" x2="38.5209" y2="89.1208" gradientUnits="userSpaceOnUse">
<stop offset="0.0361" stop-color="#EBE2FD"/>
<stop offset="0.1811" stop-color="#E6DAFC" stop-opacity="0.8496"/>
<stop offset="0.4031" stop-color="#D7C5FA" stop-opacity="0.6193"/>
<stop offset="0.6744" stop-color="#BFA2F6" stop-opacity="0.3378"/>
<stop offset="0.9822" stop-color="#9D72F1" stop-opacity="0.0184"/>
<stop offset="1" stop-color="#9B6FF1" stop-opacity="0"/>
</linearGradient>
<linearGradient id="paint3_linear_1_138" x1="150.114" y1="-10.4216" x2="37.4596" y2="90.0584" gradientUnits="userSpaceOnUse">
<stop offset="0.0361" stop-color="#EBE2FD"/>
<stop offset="0.1811" stop-color="#E6DAFC" stop-opacity="0.8496"/>
<stop offset="0.4031" stop-color="#D7C5FA" stop-opacity="0.6193"/>
<stop offset="0.6744" stop-color="#BFA2F6" stop-opacity="0.3378"/>
<stop offset="0.9822" stop-color="#9D72F1" stop-opacity="0.0184"/>
<stop offset="1" stop-color="#9B6FF1" stop-opacity="0"/>
</linearGradient>
<linearGradient id="paint4_linear_1_138" x1="-0.563241" y1="54.6268" x2="124.261" y2="121.219" gradientUnits="userSpaceOnUse">
<stop stop-color="#A57EF3"/>
<stop offset="0.0157" stop-color="#9672E1"/>
<stop offset="0.0445" stop-color="#7F61C6"/>
<stop offset="0.0777" stop-color="#6D53B0"/>
<stop offset="0.1164" stop-color="#5E489F"/>
<stop offset="0.1643" stop-color="#544194"/>
<stop offset="0.2315" stop-color="#4F3C8D"/>
<stop offset="0.418" stop-color="#4D3B8B"/>
<stop offset="0.6003" stop-color="#4F3D8D"/>
<stop offset="0.6888" stop-color="#564395"/>
<stop offset="0.7571" stop-color="#634EA2"/>
<stop offset="0.815" stop-color="#755EB4"/>
<stop offset="0.8663" stop-color="#8D72CC"/>
<stop offset="0.9124" stop-color="#A98AEA"/>
<stop offset="0.9275" stop-color="#B494F5"/>
<stop offset="1" stop-color="#C3AAF7"/>
</linearGradient>
<clipPath id="clip0_1_138">
<rect width="145" height="138" fill="white"/>
</clipPath>
</defs>
</svg>
